<svg width="359" height="118" viewBox="0 0 359 118" fill="none" xmlns="http://www.w3.org/2000/svg">
<path d="M39.1984 98.3333C39.1984 109.195 30.4235 118 19.5992 118C8.77486 118 0 109.195 0 98.3333C0 87.4717 8.77486 78.6667 19.5992 78.6667C30.4235 78.6667 39.1984 87.4717 39.1984 98.3333Z" fill="black"/>
<path d="M39.1984 19.6667C39.1984 30.5283 30.4235 39.3333 19.5992 39.3333C8.77486 39.3333 0 30.5283 0 19.6667C0 8.80507 8.77486 0 19.5992 0C30.4235 0 39.1984 8.80507 39.1984 19.6667Z" fill="black"/>
<path d="M92.4987 98.3333C92.4987 109.195 83.7238 118 72.8995 118C62.0751 118 53.3003 109.195 53.3003 98.3333C53.3003 87.4717 62.0751 78.6667 72.8995 78.6667C83.7238 78.6667 92.4987 87.4717 92.4987 98.3333Z" fill="black"/>
<path d="M92.4987 19.6667C92.4987 30.5283 83.7238 39.3333 72.8995 39.3333C62.0751 39.3333 53.3003 30.5283 53.3003 19.6667C53.3003 8.80507 62.0751 0 72.8995 0C83.7238 0 92.4987 8.80507 92.4987 19.6667Z" fill="black"/>
<path d="M145.799 98.3333C145.799 109.195 137.024 118 126.2 118C115.375 118 106.601 109.195 106.601 98.3333C106.601 87.4717 115.375 78.6667 126.2 78.6667C137.024 78.6667 145.799 87.4717 145.799 98.3333Z" fill="black"/>
<path d="M145.799 19.6667C145.799 30.5283 137.024 39.3333 126.2 39.3333C115.375 39.3333 106.601 30.5283 106.601 19.6667C106.601 8.80507 115.375 0 126.2 0C137.024 0 145.799 8.80507 145.799 19.6667Z" fill="black"/>
<path d="M199.099 98.3333C199.099 109.195 190.324 118 179.5 118C168.676 118 159.901 109.195 159.901 98.3333C159.901 87.4717 168.676 78.6667 179.5 78.6667C190.324 78.6667 199.099 87.4717 199.099 98.3333Z" fill="black"/>
<path d="M66.2071 59C66.2071 69.8616 57.4322 78.6667 46.6079 78.6667C35.7835 78.6667 27.0087 69.8616 27.0087 59C27.0087 48.1384 35.7835 39.3333 46.6079 39.3333C57.4322 39.3333 66.2071 48.1384 66.2071 59Z" fill="black"/>
<path d="M332.708 59C332.708 69.8616 323.934 78.6667 313.109 78.6667C302.285 78.6667 293.51 69.8616 293.51 59C293.51 48.1384 302.285 39.3333 313.109 39.3333C323.934 39.3333 332.708 48.1384 332.708 59Z" fill="black"/>
<path d="M279.408 59C279.408 69.8616 270.633 78.6667 259.809 78.6667C248.985 78.6667 240.21 69.8616 240.21 59C240.21 48.1384 248.985 39.3333 259.809 39.3333C270.633 39.3333 279.408 48.1384 279.408 59Z" fill="black"/>
<path d="M359 19.6667C359 30.5283 350.225 39.3333 339.401 39.3333C328.576 39.3333 319.802 30.5283 319.802 19.6667C319.802 8.80507 328.576 0 339.401 0C350.225 0 359 8.80507 359 19.6667Z" fill="black"/>
<path d="M199.099 19.6667C199.099 30.5283 190.324 39.3333 179.5 39.3333C168.676 39.3333 159.901 30.5283 159.901 19.6667C159.901 8.80507 168.676 0 179.5 0C190.324 0 199.099 8.80507 199.099 19.6667Z" fill="black"/>
<path d="M183.477 18.2411C183.436 17.6885 183.314 17.1564 183.11 16.6447C182.927 16.1331 182.661 15.693 182.315 15.3247C181.988 14.9358 181.58 14.6288 181.091 14.4037C180.622 14.1581 180.091 14.0353 179.5 14.0353C178.888 14.0353 178.327 14.1478 177.817 14.373C177.328 14.5776 176.9 14.8744 176.532 15.2633C176.186 15.6316 175.9 16.0717 175.676 16.5833C175.472 17.095 175.36 17.6476 175.339 18.2411H183.477ZM175.339 20.5435C175.339 21.1575 175.421 21.751 175.584 22.3241C175.768 22.8971 176.033 23.3985 176.379 23.8283C176.726 24.2581 177.165 24.606 177.695 24.8721C178.225 25.1177 178.858 25.2405 179.592 25.2405C180.612 25.2405 181.427 25.0256 182.039 24.5958C182.672 24.1456 183.141 23.4804 183.447 22.6004H186.751C186.567 23.4599 186.251 24.2274 185.802 24.9028C185.354 25.5782 184.813 26.1512 184.181 26.622C183.549 27.0722 182.835 27.4099 182.039 27.635C181.264 27.8806 180.448 28.0034 179.592 28.0034C178.348 28.0034 177.246 27.7988 176.288 27.3894C175.329 26.9801 174.513 26.4071 173.84 25.6703C173.187 24.9335 172.688 24.0535 172.341 23.0301C172.015 22.0068 171.852 20.8812 171.852 19.6532C171.852 18.5276 172.025 17.4634 172.372 16.4605C172.739 15.4372 173.249 14.5469 173.901 13.7897C174.574 13.012 175.38 12.398 176.318 11.9477C177.256 11.4975 178.317 11.2724 179.5 11.2724C180.744 11.2724 181.856 11.5384 182.835 12.0705C183.834 12.5822 184.66 13.2678 185.313 14.1274C185.966 14.987 186.435 15.9796 186.72 17.1052C187.026 18.2104 187.108 19.3565 186.965 20.5435H175.339Z" fill="white"/>
<path d="M172.808 59C172.808 69.8616 164.033 78.6667 153.208 78.6667C142.384 78.6667 133.609 69.8616 133.609 59C133.609 48.1384 142.384 39.3333 153.208 39.3333C164.033 39.3333 172.808 48.1384 172.808 59Z" fill="black"/>
<path d="M157.186 57.5744C157.145 57.0218 157.022 56.4897 156.818 55.978C156.635 55.4664 156.37 55.0264 156.023 54.658C155.697 54.2691 155.289 53.9621 154.799 53.737C154.33 53.4914 153.8 53.3686 153.208 53.3686C152.597 53.3686 152.036 53.4812 151.526 53.7063C151.036 53.911 150.608 54.2077 150.241 54.5966C149.894 54.965 149.609 55.405 149.384 55.9166C149.18 56.4283 149.068 56.9809 149.048 57.5744H157.186ZM149.048 59.8768C149.048 60.4908 149.129 61.0843 149.292 61.6574C149.476 62.2305 149.741 62.7319 150.088 63.1617C150.435 63.5914 150.873 63.9394 151.403 64.2054C151.934 64.451 152.566 64.5738 153.3 64.5738C154.32 64.5738 155.136 64.3589 155.748 63.9291C156.38 63.4789 156.849 62.8137 157.155 61.9337H160.459C160.276 62.7933 159.959 63.5607 159.511 64.2361C159.062 64.9115 158.522 65.4846 157.889 65.9553C157.257 66.4055 156.543 66.7432 155.748 66.9684C154.973 67.2139 154.157 67.3367 153.3 67.3367C152.056 67.3367 150.955 67.1321 149.996 66.7228C149.037 66.3134 148.222 65.7404 147.549 65.0036C146.896 64.2668 146.396 63.3868 146.049 62.3635C145.723 61.3402 145.56 60.2145 145.56 58.9866C145.56 57.8609 145.733 56.7967 146.08 55.7939C146.447 54.7705 146.957 53.8803 147.61 53.123C148.283 52.3453 149.088 51.7313 150.027 51.2811C150.965 50.8308 152.025 50.6057 153.208 50.6057C154.453 50.6057 155.564 50.8717 156.543 51.4039C157.543 51.9155 158.369 52.6011 159.021 53.4607C159.674 54.3203 160.143 55.3129 160.429 56.4385C160.734 57.5437 160.816 58.6898 160.673 59.8768H149.048Z" fill="white"/>
<path d="M226.108 59C226.108 69.8616 217.333 78.6667 206.509 78.6667C195.684 78.6667 186.909 69.8616 186.909 59C186.909 48.1384 195.684 39.3333 206.509 39.3333C217.333 39.3333 226.108 48.1384 226.108 59Z" fill="black"/>
<path d="M204.836 47.9675H208.323V51.283H204.836V47.9675ZM204.836 54.0152H208.323V69.8867H204.836V54.0152Z" fill="white"/>
<path d="M252.399 98.3333C252.399 109.195 243.625 118 232.8 118C221.976 118 213.201 109.195 213.201 98.3333C213.201 87.4717 221.976 78.6667 232.8 78.6667C243.625 78.6667 252.399 87.4717 252.399 98.3333Z" fill="black"/>
<path d="M226.481 90.4187H239.33V92.8746L230.274 103.527H239.789V106.29H225.869V103.834L234.619 93.1816H226.481V90.4187Z" fill="white"/>
<path d="M305.7 98.3333C305.7 109.195 296.925 118 286.101 118C275.276 118 266.501 109.195 266.501 98.3333C266.501 87.4717 275.276 78.6667 286.101 78.6667C296.925 78.6667 305.7 87.4717 305.7 98.3333Z" fill="black"/>
<path d="M290.078 96.9077C290.037 96.3552 289.915 95.823 289.711 95.3114C289.527 94.7997 289.262 94.3597 288.915 93.9913C288.589 93.6025 288.181 93.2955 287.691 93.0703C287.222 92.8247 286.692 92.7019 286.101 92.7019C285.489 92.7019 284.928 92.8145 284.418 93.0396C283.928 93.2443 283.5 93.5411 283.133 93.9299C282.786 94.2983 282.501 94.7383 282.276 95.25C282.072 95.7616 281.96 96.3142 281.94 96.9077H290.078ZM281.94 99.2102C281.94 99.8242 282.021 100.418 282.185 100.991C282.368 101.564 282.633 102.065 282.98 102.495C283.327 102.925 283.765 103.273 284.295 103.539C284.826 103.784 285.458 103.907 286.192 103.907C287.212 103.907 288.028 103.692 288.64 103.262C289.272 102.812 289.741 102.147 290.047 101.267H293.351C293.168 102.127 292.852 102.894 292.403 103.569C291.954 104.245 291.414 104.818 290.781 105.289C290.149 105.739 289.435 106.077 288.64 106.302C287.865 106.547 287.049 106.67 286.192 106.67C284.948 106.67 283.847 106.465 282.888 106.056C281.93 105.647 281.114 105.074 280.441 104.337C279.788 103.6 279.288 102.72 278.942 101.697C278.615 100.674 278.452 99.5479 278.452 98.3199C278.452 97.1943 278.625 96.13 278.972 95.1272C279.339 94.1039 279.849 93.2136 280.502 92.4564C281.175 91.6786 281.981 91.0647 282.919 90.6144C283.857 90.1642 284.918 89.939 286.101 89.939C287.345 89.939 288.456 90.2051 289.435 90.7372C290.435 91.2489 291.261 91.9345 291.913 92.794C292.566 93.6536 293.035 94.6462 293.321 95.7719C293.627 96.877 293.708 98.0231 293.565 99.2102H281.94Z" fill="white"/>
<path d="M359 98.3333C359 109.195 350.225 118 339.401 118C328.576 118 319.802 109.195 319.802 98.3333C319.802 87.4717 328.576 78.6667 339.401 78.6667C350.225 78.6667 359 87.4717 359 98.3333Z" fill="black"/>
<path d="M334.86 90.6086H338.133V93.6786H338.194C338.296 93.2488 338.49 92.8292 338.776 92.4199C339.081 92.0106 339.438 91.6422 339.846 91.3147C340.275 90.9668 340.744 90.6905 341.254 90.4859C341.764 90.2812 342.284 90.1789 342.814 90.1789C343.222 90.1789 343.497 90.1891 343.64 90.2096C343.803 90.23 343.966 90.2505 344.129 90.271V93.6479C343.885 93.6069 343.63 93.5762 343.365 93.5558C343.12 93.5148 342.875 93.4944 342.63 93.4944C342.039 93.4944 341.478 93.6172 340.948 93.8628C340.438 94.0879 339.989 94.4358 339.602 94.9065C339.214 95.3568 338.908 95.9196 338.684 96.595C338.459 97.2704 338.347 98.0481 338.347 98.9281V106.48H334.86V90.6086Z" fill="white"/>
<path d="M119.507 59C119.507 69.8616 110.732 78.6667 99.9081 78.6667C89.0838 78.6667 80.3089 69.8616 80.3089 59C80.3089 48.1384 89.0838 39.3333 99.9081 39.3333C110.732 39.3333 119.507 48.1384 119.507 59Z" fill="black"/>
<path d="M92.4987 47.9675H95.9864V60.4313L102.289 54.0152H106.572L100.514 59.8481L107.153 69.8867H102.901L98.0667 62.1812L95.9864 64.2073V69.8867H92.4987V47.9675Z" fill="white"/>
<path d="M252.399 19.6667C252.399 30.5283 243.625 39.3333 232.8 39.3333C221.976 39.3333 213.201 30.5283 213.201 19.6667C213.201 8.80507 221.976 0 232.8 0C243.625 0 252.399 8.80507 252.399 19.6667Z" fill="black"/>
<path d="M225.152 12.0205L228.945 11.954L233.164 24.0696L233.225 24.0685L236.867 11.8153L240.477 11.752L235.094 27.7202L231.179 27.7888L225.152 12.0205Z" fill="white"/>
<path d="M305.7 19.6667C305.7 30.5283 296.925 39.3333 286.101 39.3333C275.276 39.3333 266.501 30.5283 266.501 19.6667C266.501 8.80507 275.276 0 286.101 0C296.925 0 305.7 8.80507 305.7 19.6667Z" fill="black"/>
<path d="M292.317 24.0432C292.317 24.473 292.368 24.78 292.47 24.9642C292.592 25.1484 292.817 25.2405 293.143 25.2405C293.245 25.2405 293.367 25.2405 293.51 25.2405C293.653 25.2405 293.816 25.22 293.999 25.1791V27.6043C293.877 27.6453 293.714 27.6862 293.51 27.7271C293.326 27.7885 293.133 27.8397 292.929 27.8806C292.725 27.9215 292.521 27.9522 292.317 27.9727C292.113 27.9932 291.94 28.0034 291.797 28.0034C291.083 28.0034 290.491 27.8602 290.022 27.5736C289.553 27.2871 289.247 26.7857 289.104 26.0694C288.411 26.7447 287.554 27.2359 286.535 27.5429C285.535 27.8499 284.566 28.0034 283.628 28.0034C282.914 28.0034 282.231 27.9011 281.578 27.6964C280.926 27.5122 280.344 27.2359 279.835 26.8675C279.345 26.4787 278.947 25.9977 278.641 25.4247C278.356 24.8312 278.213 24.1455 278.213 23.3678C278.213 22.3855 278.386 21.5873 278.733 20.9733C279.1 20.3593 279.569 19.8784 280.14 19.5304C280.732 19.1825 281.385 18.9369 282.098 18.7937C282.833 18.6299 283.567 18.5071 284.301 18.4253C284.934 18.3025 285.535 18.2206 286.106 18.1797C286.677 18.1183 287.177 18.0262 287.605 17.9034C288.054 17.7806 288.401 17.5964 288.646 17.3508C288.911 17.0847 289.043 16.6959 289.043 16.1842C289.043 15.734 288.931 15.3656 288.707 15.0791C288.503 14.7925 288.238 14.5776 287.911 14.4344C287.605 14.2706 287.259 14.1683 286.871 14.1274C286.484 14.066 286.116 14.0353 285.77 14.0353C284.791 14.0353 283.985 14.2399 283.353 14.6493C282.721 15.0586 282.364 15.693 282.282 16.5526H278.794C278.856 15.5293 279.1 14.68 279.529 14.0046C279.957 13.3292 280.497 12.7869 281.15 12.3775C281.823 11.9682 282.578 11.6817 283.414 11.518C284.25 11.3542 285.107 11.2724 285.984 11.2724C286.759 11.2724 287.524 11.3542 288.278 11.518C289.033 11.6817 289.706 11.9477 290.298 12.3161C290.91 12.6845 291.399 13.1655 291.766 13.759C292.133 14.332 292.317 15.0381 292.317 15.8772V24.0432ZM288.829 19.6225C288.299 19.9705 287.646 20.1854 286.871 20.2672C286.096 20.3286 285.321 20.4309 284.546 20.5742C284.179 20.6356 283.822 20.7277 283.475 20.8505C283.128 20.9528 282.823 21.1063 282.557 21.311C282.292 21.4952 282.078 21.751 281.915 22.0785C281.772 22.3855 281.701 22.7641 281.701 23.2143C281.701 23.6032 281.813 23.9307 282.037 24.1967C282.262 24.4628 282.527 24.6777 282.833 24.8414C283.159 24.9847 283.506 25.087 283.873 25.1484C284.26 25.2098 284.607 25.2405 284.913 25.2405C285.301 25.2405 285.719 25.1893 286.167 25.087C286.616 24.9847 287.034 24.8107 287.422 24.5651C287.83 24.3195 288.166 24.0125 288.431 23.6441C288.697 23.2553 288.829 22.7846 288.829 22.232V19.6225Z" fill="white"/>
</svg>
